<svg width="154" height="24" viewBox="0 0 154 24" fill="none" xmlns="http://www.w3.org/2000/svg">
<path d="M16.0714 14.1543C16.5386 14.1543 16.9924 14.1497 17.446 14.157C17.5855 14.1593 17.7333 14.1703 17.8618 14.2187C18.213 14.3509 18.4345 14.6153 18.4926 14.9863C18.5379 15.2761 18.5079 15.5629 18.3185 15.8128C18.1595 16.0225 17.974 16.1749 17.6968 16.1841C17.2378 16.1995 16.7791 16.2313 16.32 16.2349C15.3318 16.2429 14.3433 16.2279 13.3552 16.2435C13.0801 16.2478 12.8854 16.1258 12.6925 15.9697C12.462 15.7832 12.3793 15.5294 12.3782 15.2416C12.3692 12.7188 12.3591 10.196 12.3526 7.67322C12.3517 7.33246 12.3518 6.99011 12.3818 6.6512C12.4509 5.87129 12.6968 5.14558 13.1293 4.49312C13.3114 4.21841 13.5248 3.96252 13.7418 3.71362C14.2762 3.10052 14.9447 2.68132 15.6952 2.38394C16.1221 2.2148 16.5605 2.09222 17.0188 2.06406C17.3889 2.04132 17.7626 2.01446 18.131 2.04116C18.7268 2.08435 19.3052 2.224 19.859 2.46115C20.4296 2.70552 20.948 3.02773 21.418 3.43441C22.1027 4.02676 22.6031 4.7476 22.9612 5.5773C23.1539 6.02382 23.2964 6.48614 23.368 6.96247C23.432 7.38844 23.4682 7.826 23.4497 8.25554C23.4118 9.13789 23.2146 9.98704 22.8193 10.7865C22.5939 11.2423 22.3355 11.6729 22.0024 12.0557C21.6961 12.4077 21.3839 12.7547 21.0697 13.0996C20.8736 13.3148 20.6775 13.5314 20.465 13.7297C20.3005 13.8831 20.1419 14.0504 19.9066 14.1103C19.3765 14.2454 18.7366 13.9571 18.5934 13.3838C18.5057 13.033 18.5435 12.6772 18.8344 12.391C19.1047 12.1252 19.3598 11.8432 19.6116 11.5595C19.9875 11.1362 20.3984 10.743 20.7003 10.2559C20.9814 9.80238 21.1877 9.32021 21.2709 8.79283C21.3171 8.49976 21.3518 8.20092 21.3496 7.90499C21.346 7.42242 21.2504 6.95349 21.0612 6.50483C20.8846 6.08582 20.6397 5.71706 20.337 5.37785C19.8068 4.78375 19.1513 4.40057 18.3915 4.20755C18.036 4.11724 17.6634 4.13967 17.2921 4.1639C16.7584 4.19872 16.2968 4.39936 15.8634 4.68587C15.2171 5.11314 14.7938 5.71078 14.5735 6.45191C14.5324 6.59013 14.5157 6.73911 14.5105 6.88394C14.4946 7.32363 14.4876 7.7637 14.4829 8.20368C14.4819 8.29585 14.5057 8.3883 14.5208 8.50018C14.5596 8.50018 14.6071 8.50018 14.6547 8.50018C15.3824 8.50018 16.1103 8.49501 16.8379 8.50261C17.1441 8.50581 17.4509 8.52607 17.7557 8.55641C18.1344 8.5941 18.4477 8.9313 18.5233 9.28236C18.6251 9.75446 18.4613 10.1908 18.0563 10.4613C17.9459 10.5351 17.7938 10.573 17.659 10.5782C17.1178 10.5994 16.5758 10.6031 16.0341 10.6096C15.7197 10.6134 15.4051 10.6059 15.0907 10.6119C14.8825 10.6159 14.6745 10.6349 14.4515 10.648C14.4709 11.8119 14.4902 12.974 14.5099 14.1543C15.0288 14.1543 15.5433 14.1543 16.0714 14.1543Z" fill="#18181B"/>
<path d="M2.56585 3.46823C3.3069 2.79243 4.1704 2.3749 5.12973 2.14396C5.68144 2.01115 6.24468 2.00766 6.8034 2.04112C7.38638 2.07604 7.94903 2.22198 8.48907 2.4614C8.92198 2.65332 9.33478 2.87929 9.69318 3.18263C9.99403 3.43726 10.2569 3.73882 10.5247 4.03053C10.7885 4.31777 10.9759 4.65858 11.1481 5.00638C11.3678 5.44981 11.507 5.92051 11.5935 6.40636C11.6183 6.54583 11.6221 6.69048 11.6223 6.83276C11.624 8.89754 11.6166 10.9624 11.6297 13.0271C11.6321 13.4009 11.5612 13.7507 11.425 14.0846C11.2964 14.3998 11.1362 14.7068 10.9534 14.994C10.7135 15.3708 10.3879 15.6737 10.0235 15.9334C9.54121 16.2773 9.00755 16.5086 8.42787 16.6056C8.01177 16.6753 7.58756 16.6699 7.16547 16.6001C6.81202 16.5417 6.47641 16.4314 6.15674 16.2784C5.80595 16.1104 5.49345 15.8839 5.21153 15.6105C4.92116 15.3289 4.6877 15.0107 4.50112 14.6534C4.20984 14.0956 4.13515 13.4954 4.18914 12.8823C4.23071 12.4101 4.38243 11.9673 4.6609 11.5707C4.95141 11.157 5.48815 10.9475 5.97822 11.0766C6.41173 11.1909 6.6912 11.5609 6.72274 12.0112C6.74341 12.3063 6.65528 12.5578 6.49834 12.7865C6.2254 13.1841 6.34454 13.7006 6.61787 13.9909C6.88173 14.2711 7.19506 14.4589 7.56898 14.5223C7.81329 14.5638 8.06181 14.5365 8.3033 14.4553C8.78709 14.2926 9.1431 13.984 9.37216 13.5303C9.49053 13.2958 9.54886 13.0444 9.54859 12.7786C9.54689 11.115 9.55261 9.45146 9.5441 7.78796C9.54212 7.40157 9.53022 7.00868 9.45941 6.63077C9.35885 6.09415 9.09523 5.62821 8.72338 5.2203C8.31234 4.7694 7.81472 4.46711 7.24342 4.27682C6.9874 4.19154 6.72436 4.15324 6.45294 4.14095C5.82665 4.11257 5.24404 4.26169 4.69716 4.55278C4.2854 4.77196 3.92713 5.05956 3.62069 5.42025C3.26168 5.84282 3.00394 6.31327 2.82896 6.83666C2.65976 7.34274 2.60864 7.86508 2.65244 8.38932C2.71329 9.11754 2.96757 9.78354 3.39863 10.3773C3.5435 10.5768 3.69058 10.7748 3.83248 10.9765C4.04042 11.272 3.99595 11.8184 3.75226 12.089C3.57759 12.2829 3.38526 12.4487 3.12731 12.4903C2.79326 12.5443 2.47437 12.488 2.21427 12.2452C1.84839 11.9038 1.57966 11.4887 1.33139 11.0588C1.01738 10.5152 0.791811 9.93536 0.660563 9.32206C0.608989 9.08106 0.591996 8.83155 0.573122 8.58485C0.554359 8.33959 0.541855 8.09279 0.546316 7.84702C0.555983 7.31449 0.628295 6.7908 0.7868 6.27964C0.980655 5.65448 1.24164 5.06338 1.62081 4.52734C1.8945 4.14043 2.21045 3.79203 2.56585 3.46823Z" fill="#18181B"/>
<path d="M8.43412 18.6766C8.07678 18.0299 8.3733 17.3249 8.97879 17.1253C9.39631 16.9877 9.78292 17.079 10.1089 17.4057C10.7397 18.0376 11.3809 18.6591 12.0222 19.2893C12.5101 18.7988 12.999 18.3019 13.4945 17.8116C13.7032 17.6051 13.9191 17.4045 14.1455 17.218C14.2326 17.1464 14.3556 17.0903 14.4665 17.0814C14.7855 17.0559 15.103 17.0624 15.3706 17.2901C15.5459 17.4393 15.6584 17.6236 15.711 17.8429C15.7767 18.1171 15.7724 18.3876 15.6056 18.631C15.551 18.7108 15.485 18.7836 15.4185 18.8541C15.2094 19.0758 14.9978 19.2951 14.7868 19.5148C14.5323 19.7799 14.2784 20.0454 14.0224 20.309C13.604 20.7399 13.1854 21.1707 12.7639 21.5987C12.6709 21.6931 12.5734 21.7871 12.4642 21.8608C12.1807 22.0519 11.6405 22.0029 11.3963 21.7395C11.0828 21.4014 10.7334 21.097 10.4081 20.7695C9.94031 20.2987 9.47678 19.8236 9.01859 19.3435C8.81708 19.1323 8.63315 18.9042 8.43412 18.6766Z" fill="#18181B"/>
<path d="M135.219 20.2079V3.50592H139.084V20.2079H135.219Z" fill="#18181B"/>
<path d="M114.279 20.2079L121.723 3.50592H125.541L133.009 20.2079H128.953L122.845 5.46244H124.372L118.24 20.2079H114.279ZM118.001 16.6289L119.027 13.6941H127.617L128.667 16.6289H118.001Z" fill="#18181B"/>
<path d="M91.217 20.2079V3.50592H98.4466C99.9418 3.50592 101.23 3.75247 102.312 4.24558C103.394 4.72278 104.229 5.41472 104.817 6.3214C105.406 7.22808 105.7 8.30974 105.7 9.56637C105.7 10.8071 105.406 11.8808 104.817 12.7875C104.229 13.6782 103.394 14.3622 102.312 14.8394C101.23 15.3166 99.9418 15.5552 98.4466 15.5552H93.3644L95.0823 13.8612V20.2079H91.217ZM101.835 20.2079L97.6592 14.1475H101.787L106.01 20.2079H101.835ZM95.0823 14.2907L93.3644 12.4773H98.2319C99.4249 12.4773 100.316 12.2228 100.904 11.7138C101.493 11.1888 101.787 10.473 101.787 9.56637C101.787 8.64378 101.493 7.92798 100.904 7.41896C100.316 6.90995 99.4249 6.65544 98.2319 6.65544H93.3644L95.0823 4.81822V14.2907Z" fill="#18181B"/>
<path d="M78.2873 10.2344H86.3281V13.2408H78.2873V10.2344ZM78.5736 17.1061H87.6642V20.2079H74.7321V3.50592H87.3541V6.60772H78.5736V17.1061Z" fill="#18181B"/>
<path d="M62.9652 20.2079V6.65544H57.6205V3.50592H72.1752V6.65544H66.8305V20.2079H62.9652Z" fill="#18181B"/>
<path d="M46.5759 10.2344H54.6167V13.2408H46.5759V10.2344ZM46.8622 17.1061H55.9529V20.2079H43.0207V3.50592H55.6427V6.60772H46.8622V17.1061Z" fill="#18181B"/>
<path d="M32.7128 20.4941C31.5834 20.4941 30.5416 20.2873 29.5872 19.8738C28.6487 19.4443 27.8772 18.8398 27.2727 18.0604L29.4201 15.4835C29.8814 16.088 30.3666 16.5493 30.8756 16.8674C31.3846 17.1696 31.9334 17.3208 32.5219 17.3208C34.0967 17.3208 34.8841 16.3982 34.8841 14.553V6.6076H31.9493V3.5058H38.7255V14.3382C38.7255 16.4061 38.2165 17.9491 37.1985 18.9671C36.1805 19.9851 34.6852 20.4941 32.7128 20.4941Z" fill="#18181B"/>
<path d="M147.333 8.38852V3.5058H148.415L150.651 6.88252H150.086L152.274 3.5058H153.345L153.369 8.38852H152.133L152.121 5.2824H152.333L150.639 7.8826H150.051L148.298 5.2824H148.568V8.38852H147.333ZM143.733 8.38852V4.51764H142.074V3.5058H146.721V4.51764H145.05V8.38852H143.733Z" fill="#18181B"/>
</svg>
